<svg width="369" height="302" viewBox="0 0 369 302" fill="none" xmlns="http://www.w3.org/2000/svg">
<path d="M192.948 1.60366L368.247 152.397" stroke="url(#paint0_linear)" stroke-width="2"/>
<path d="M194.395 2.94259L176.21 33.991" stroke="url(#paint1_linear)" stroke-width="2"/>
<path d="M153.337 32.0947L63.1567 121.631" stroke="url(#paint2_linear)" stroke-width="2"/>
<path d="M4.79773 167.382L177.794 300.52" stroke="url(#paint3_linear)" stroke-width="2"/>
<path d="M367 153L175.564 299.176" stroke="url(#paint4_linear)" stroke-width="2"/>
<path d="M194.188 1.6357L15.3186 134.417" stroke="url(#paint5_linear)" stroke-width="2"/>
<path d="M15.6531 133.984L1.8666 168.73" stroke="url(#paint6_linear)" stroke-width="2"/>
<path d="M15.3425 133.523L177.547 298.938" stroke="url(#paint7_linear)" stroke-width="2"/>
<path d="M1.67651 167.578L227.699 295.206" stroke="url(#paint8_linear)" stroke-width="2"/>
<path d="M367.909 151.641V186.238" stroke="url(#paint9_linear)" stroke-width="2"/>
<path d="M367.559 185.906L176.668 300.449" stroke="url(#paint10_linear)" stroke-width="2"/>
<path d="M368.3 185.452L226.595 295.284" stroke="url(#paint11_linear)" stroke-width="2"/>
<path d="M176.547 33.0058L368.365 152.781" stroke="url(#paint12_linear)" stroke-width="2"/>
<path d="M177.497 31.7883L3.48821 168.504" stroke="url(#paint13_linear)" stroke-width="2"/>
<g filter="url(#filter0_d)">
<path d="M163.471 181.7C161.671 182.9 159.611 183.88 157.291 184.64C155.011 185.36 152.451 185.72 149.611 185.72C146.331 185.72 143.491 185.18 141.091 184.1C138.691 183.02 136.691 181.56 135.091 179.72C133.531 177.88 132.371 175.76 131.611 173.36C130.851 170.92 130.471 168.34 130.471 165.62C130.471 162.78 130.891 160.12 131.731 157.64C132.571 155.16 133.811 153 135.451 151.16C137.131 149.28 139.191 147.8 141.631 146.72C144.111 145.64 146.991 145.1 150.271 145.1C152.591 145.1 154.851 145.34 157.051 145.82C159.251 146.26 161.211 146.88 162.931 147.68L161.671 152C160.391 151.16 158.731 150.46 156.691 149.9C154.691 149.34 152.431 149.06 149.911 149.06C147.231 149.06 144.971 149.46 143.131 150.26C141.291 151.02 139.791 152.1 138.631 153.5C137.511 154.9 136.691 156.6 136.171 158.6C135.691 160.56 135.451 162.74 135.451 165.14C135.451 170.62 136.651 174.76 139.051 177.56C141.451 180.36 145.031 181.76 149.791 181.76C151.551 181.76 153.191 181.58 154.711 181.22C156.271 180.86 157.691 180.4 158.971 179.84V168.68H163.471V181.7ZM198.51 169.1H208.83V172.22H198.51V182.54H195.39V172.22H185.13V169.1H195.39V159.38H198.51V169.1ZM237.042 178.94C237.042 181.06 236.822 183.06 236.382 184.94C235.982 186.78 235.342 188.4 234.462 189.8C233.622 191.2 232.542 192.3 231.222 193.1C229.942 193.94 228.402 194.36 226.602 194.36L225.762 191.06C227.322 191.06 228.562 190.68 229.482 189.92C230.402 189.16 231.082 188.18 231.522 186.98C231.962 185.82 232.242 184.52 232.362 183.08C232.482 181.64 232.542 180.24 232.542 178.88V145.4H237.042V178.94Z" fill="url(#paint14_linear)"/>
</g>
<defs>
<filter id="filter0_d" x="128.471" y="143.1" width="114.571" height="57.26" filterUnits="userSpaceOnUse" color-interpolation-filters="sRGB">
<feFlood flood-opacity="0" result="BackgroundImageFix"/>
<feColorMatrix in="SourceAlpha" type="matrix" values="0 0 0 0 0 0 0 0 0 0 0 0 0 0 0 0 0 0 127 0"/>
<feOffset dx="2" dy="2"/>
<feGaussianBlur stdDeviation="2"/>
<feColorMatrix type="matrix" values="0 0 0 0 0 0 0 0 0 0 0 0 0 0 0 0 0 0 0.45 0"/>
<feBlend mode="normal" in2="BackgroundImageFix" result="effect1_dropShadow"/>
<feBlend mode="normal" in="SourceGraphic" in2="effect1_dropShadow" result="shape"/>
</filter>
<linearGradient id="paint0_linear" x1="280.395" y1="77.234" x2="280.8" y2="76.7668" gradientUnits="userSpaceOnUse">
<stop stop-color="#CAA472"/>
<stop offset="1" stop-color="#E4C295"/>
</linearGradient>
<linearGradient id="paint1_linear" x1="185.381" y1="18.5124" x2="185.224" y2="18.4212" gradientUnits="userSpaceOnUse">
<stop stop-color="#CAA472"/>
<stop offset="1" stop-color="#E4C295"/>
</linearGradient>
<linearGradient id="paint2_linear" x1="108.408" y1="77.0237" x2="108.086" y2="76.7015" gradientUnits="userSpaceOnUse">
<stop stop-color="#CAA472"/>
<stop offset="1" stop-color="#E4C295"/>
</linearGradient>
<linearGradient id="paint3_linear" x1="91.5448" y1="233.625" x2="91.047" y2="234.277" gradientUnits="userSpaceOnUse">
<stop stop-color="#CAA472"/>
<stop offset="1" stop-color="#E4C295"/>
</linearGradient>
<linearGradient id="paint4_linear" x1="271.341" y1="226.166" x2="271.223" y2="226.01" gradientUnits="userSpaceOnUse">
<stop stop-color="#CAA472"/>
<stop offset="1" stop-color="#E4C295"/>
</linearGradient>
<linearGradient id="paint5_linear" x1="104.998" y1="68.3541" x2="104.508" y2="67.6986" gradientUnits="userSpaceOnUse">
<stop stop-color="#CAA472"/>
<stop offset="1" stop-color="#E4C295"/>
</linearGradient>
<linearGradient id="paint6_linear" x1="8.99999" y1="151.448" x2="8.51975" y2="151.265" gradientUnits="userSpaceOnUse">
<stop stop-color="#CAA472"/>
<stop offset="1" stop-color="#E4C295"/>
</linearGradient>
<linearGradient id="paint7_linear" x1="96.0664" y1="216.598" x2="96.8226" y2="215.863" gradientUnits="userSpaceOnUse">
<stop stop-color="#CAA472"/>
<stop offset="1" stop-color="#E4C295"/>
</linearGradient>
<linearGradient id="paint8_linear" x1="114.408" y1="231.883" x2="114.968" y2="230.902" gradientUnits="userSpaceOnUse">
<stop stop-color="#CAA472"/>
<stop offset="1" stop-color="#E4C295"/>
</linearGradient>
<linearGradient id="paint9_linear" x1="367.909" y1="168.94" x2="366.909" y2="168.94" gradientUnits="userSpaceOnUse">
<stop stop-color="#CAA472"/>
<stop offset="1" stop-color="#E4C295"/>
</linearGradient>
<linearGradient id="paint10_linear" x1="272.251" y1="243.406" x2="271.976" y2="242.949" gradientUnits="userSpaceOnUse">
<stop stop-color="#CAA472"/>
<stop offset="1" stop-color="#E4C295"/>
</linearGradient>
<linearGradient id="paint11_linear" x1="297.842" y1="240.869" x2="297.053" y2="239.867" gradientUnits="userSpaceOnUse">
<stop stop-color="#CAA472"/>
<stop offset="1" stop-color="#E4C295"/>
</linearGradient>
<linearGradient id="paint12_linear" x1="272.842" y1="92.2833" x2="272.07" y2="93.5036" gradientUnits="userSpaceOnUse">
<stop stop-color="#CAA472"/>
<stop offset="1" stop-color="#E4C295"/>
</linearGradient>
<linearGradient id="paint13_linear" x1="90.6556" y1="100.355" x2="90.3293" y2="99.9373" gradientUnits="userSpaceOnUse">
<stop stop-color="#CAA472"/>
<stop offset="1" stop-color="#E4C295"/>
</linearGradient>
<linearGradient id="paint14_linear" x1="185" y1="134" x2="185" y2="200" gradientUnits="userSpaceOnUse">
<stop stop-color="#D0818D"/>
<stop offset="1" stop-color="#CAA472"/>
</linearGradient>
</defs>
</svg>
